<?xml version="1.0" encoding="UTF-8"?>
<svg id="_レイヤー_3" data-name="レイヤー 3" xmlns="http://www.w3.org/2000/svg" viewBox="0 0 370.81 370.81">
  <defs>
    <style>
      .cls-1 {
        font-size: 45.05px;
      }

      .cls-1, .cls-2 {
        fill: #46a2cd;
      }

      .cls-1, .cls-3 {
        font-family: ADS-shiokaze-83pv-RKSJ-H, ADS-shiokaze;
      }

      .cls-4 {
        stroke-width: 1.07px;
      }

      .cls-4, .cls-5 {
        stroke: #040000;
        stroke-linecap: round;
        stroke-linejoin: round;
      }

      .cls-4, .cls-6 {
        fill: #fff;
      }

      .cls-5, .cls-7, .cls-8 {
        fill: none;
        stroke-width: .54px;
      }

      .cls-7 {
        stroke: #44abdb;
      }

      .cls-7, .cls-6, .cls-8 {
        stroke-miterlimit: 10;
      }

      .cls-6 {
        stroke-width: 2.15px;
      }

      .cls-6, .cls-8 {
        stroke: #46a2cd;
      }

      .cls-9 {
        fill: #d45f52;
      }

      .cls-10 {
        fill: #57a43d;
      }

      .cls-11 {
        fill: #fcce45;
      }

      .cls-12 {
        fill: #040000;
      }

      .cls-3 {
        font-size: 19.31px;
      }
    </style>
  </defs>
  <circle class="cls-6" cx="185.41" cy="185.41" r="184.33"/>
  <text class="cls-3" transform="translate(122.79 248.94)"><tspan class="cls-9" x="0" y="0">PET</tspan><tspan class="cls-2" x="38.96" y="0">&amp;</tspan><tspan class="cls-10" x="55.01" y="0">GREEN</tspan></text>
  <text class="cls-1" transform="translate(72.78 306.12)"><tspan x="0" y="0">コタケハラ</tspan></text>
  <path class="cls-4" d="M173.24,99.21c-7.75-2.02-16.79-1.71-24.05,1.81-6.5,3.15-10.96,8.93-13.34,15.67-2.02,5.72-2.99,11.86-3.04,17.92-.05,6.28,1.43,11.59,3.19,17.51,2.37,7.97,2,17.92-4.7,23.69-1.32,1.14-2.81,2.07-4.38,2.81,0,0-18.41,6.97-21.48-4.74-1.13-4.3-.26-9.27,2.85-12.57,3.38-3.58,9.68-4.83,13.55-1.32,3.09,2.8,3.41,8.3,4.41,12.12.9,3.41,1.94,6.79,2.71,10.23.57,2.55.98,4.98,2.18,7.34,3.7,7.26,10.77,9.92,17.94,12.66,4.76,1.82,9.81,2.84,14.91,2.94,9.07.18,17.88-2.54,25.97-6.48,11.44-5.58,21.2-11.53,24.27-19.9,3.07-8.37,3.35-10.04,3.35-10.04"/>
  <path class="cls-4" d="M190.45,117.25c-.83.83-1.19,2.64-1.58,3.69-1.05,2.87-1.96,5.79-2.8,8.73-2.41,8.46-4.23,17.16-4.98,25.94-.66,7.63-.63,15.64,1.72,23,3.71,11.63,16.46,24.35,29.44,23.16,5.71-.52,11.55-.07,17.05-1.93,6.88-2.33,11.82-7.25,16.12-12.91,5.36-7.06,5.34-17.2-3.41-21.64-2.1-1.07-4.59-1.56-6.83-.83-2.56.84-4.38,3.11-5.66,5.48-.98,1.8-1.74,3.79-1.69,5.83.12,4.07,3.61,7.46,7.52,8.57,3.91,1.11,8.12.36,12-.86,4.14-1.3,8.2-3.19,11.28-6.25,6.15-6.12,5.17-15.97,3.53-23.8-1.42-6.74-4.44-14.29-10.08-18.56-7.51-5.67-15.38-10.92-22.82-16.59-3.63-2.76-7.21-5.59-10.94-8.21-1.66-1.16-4.19-3.43-6.37-3.43"/>
  <path class="cls-4" d="M175.75,100.79c-1.48-9.91-1.8-20.81-.08-30.69.88-5.07,2.76-10.08,6.15-13.96,5.62-6.42,12.77-6.89,20.43-4.46,11.45,3.64,17.7,11.49,15.91,23.85-.49,3.41-2.08,6.81-4.94,8.73-5.2,3.49-17.53.99-18.57-6.08-.72-4.92,1.08-10.13,4.67-13.56,7.48-7.14,20.43-4.45,28.47.29,2.36,1.39,4.76,2.81,6.62,4.82,4.63,4.97,2.83,11.34.24,16.84-2.35,5-5.35,10.04-10.25,12.91-7.11,4.16-15.54,6.29-23.75,6.42-8.93.14-10.88,0-10.88,0"/>
  <circle class="cls-11" cx="183.02" cy="102.32" r="9.92"/>
  <ellipse class="cls-12" cx="149.53" cy="163.38" rx="3.95" ry="9.13"/>
  <path class="cls-5" d="M145.58,153.71s1.02,3.21,3.21,3.21"/>
  <path class="cls-12" d="M127.38,178.41s-17.13,5.45-20.86-2.21c-3.81-7.83,1.78-15.11,1.78-15.11,0,0,11.4-8.51,16.33,3.66l2.92,12.77-.17.9Z"/>
  <g>
    <circle class="cls-7" cx="283.57" cy="98.57" r="8.08"/>
    <circle class="cls-7" cx="290.05" cy="103.07" r="3.3"/>
  </g>
  <g>
    <circle class="cls-7" cx="74.87" cy="177.32" r="8.08"/>
    <circle class="cls-7" cx="82" cy="173.96" r="3.3"/>
  </g>
  <circle class="cls-7" cx="119.47" cy="117.17" r="8.08"/>
  <circle class="cls-7" cx="102.06" cy="152.01" r="3.3"/>
  <g>
    <circle class="cls-8" cx="288.73" cy="189.2" r="12.65"/>
    <circle class="cls-7" cx="298.87" cy="196.24" r="5.16"/>
  </g>
  <g>
    <circle class="cls-7" cx="103.89" cy="128.11" r="12.5"/>
    <circle class="cls-7" cx="113.91" cy="135.07" r="5.1"/>
  </g>
  <circle class="cls-7" cx="265.09" cy="108.44" r="15.45"/>
  <circle class="cls-7" cx="280.45" cy="145.33" r="6.3"/>
</svg>